<mxfile host="65bd71144e">
    <diagram id="RHmioVRmSoniBxkt3P_X" name="Page-1">
        <mxGraphModel dx="871" dy="613" grid="1" gridSize="10" guides="1" tooltips="1" connect="1" arrows="1" fold="1" page="1" pageScale="1" pageWidth="850" pageHeight="1100" math="0" shadow="0">
            <root>
                <mxCell id="0"/>
                <mxCell id="1" parent="0"/>
                <mxCell id="2" value="&lt;font color=&quot;#f0f04d&quot; face=&quot;Tahoma&quot; style=&quot;font-size: 18px;&quot;&gt;Javascript&lt;/font&gt;" style="rounded=1;whiteSpace=wrap;html=1;" parent="1" vertex="1">
                    <mxGeometry x="10" y="100" width="190" height="60" as="geometry"/>
                </mxCell>
                <mxCell id="5" value="&lt;h1&gt;&lt;font color=&quot;#2626ff&quot;&gt;AsyncCode In Javascript&lt;/font&gt;&lt;/h1&gt;" style="text;html=1;strokeColor=none;fillColor=none;spacing=5;spacingTop=-20;whiteSpace=wrap;overflow=hidden;rounded=0;fontFamily=Tahoma;fontSize=18;" parent="1" vertex="1">
                    <mxGeometry x="160" y="10" width="460" height="70" as="geometry"/>
                </mxCell>
                <mxCell id="8" value="" style="shape=ext;double=1;rounded=1;whiteSpace=wrap;html=1;fontFamily=Tahoma;fontSize=18;fontColor=#F0F04D;" parent="1" vertex="1">
                    <mxGeometry x="150" y="210" width="210" height="80" as="geometry"/>
                </mxCell>
                <mxCell id="9" value="&lt;ul style=&quot;font-size: 14px;&quot;&gt;&lt;li&gt;Syncronous&amp;nbsp;&lt;/li&gt;&lt;li&gt;Single Threat&lt;/li&gt;&lt;/ul&gt;" style="text;strokeColor=none;fillColor=none;html=1;whiteSpace=wrap;verticalAlign=middle;overflow=hidden;fontFamily=Tahoma;fontSize=18;fontColor=#F0F04D;" parent="1" vertex="1">
                    <mxGeometry x="172.5" y="210" width="165" height="80" as="geometry"/>
                </mxCell>
                <mxCell id="13" value="" style="curved=1;endArrow=classic;html=1;fontFamily=Tahoma;fontSize=14;fontColor=#F0F04D;exitX=0.072;exitY=1.037;exitDx=0;exitDy=0;exitPerimeter=0;entryX=0;entryY=0.5;entryDx=0;entryDy=0;fillColor=#fff2cc;strokeColor=#d6b656;" parent="1" source="2" target="8" edge="1">
                    <mxGeometry width="50" height="50" relative="1" as="geometry">
                        <mxPoint x="80" y="240" as="sourcePoint"/>
                        <mxPoint x="130" y="190" as="targetPoint"/>
                        <Array as="points">
                            <mxPoint x="130" y="240"/>
                            <mxPoint x="70" y="250"/>
                            <mxPoint x="80" y="190"/>
                            <mxPoint x="110" y="190"/>
                        </Array>
                    </mxGeometry>
                </mxCell>
                <mxCell id="14" value="Execution Context" style="swimlane;whiteSpace=wrap;html=1;fontFamily=Tahoma;fontSize=14;fontColor=#F0F04D;" parent="1" vertex="1">
                    <mxGeometry x="430" y="100" width="210" height="260" as="geometry"/>
                </mxCell>
                <mxCell id="18" value="console.log(1)&lt;br&gt;console.log(2)" style="whiteSpace=wrap;html=1;fontFamily=Tahoma;fontSize=14;fontColor=#FFFFFF;" parent="14" vertex="1">
                    <mxGeometry y="80" width="210" height="60" as="geometry"/>
                </mxCell>
                <mxCell id="19" value="&lt;font color=&quot;#cc00cc&quot; style=&quot;font-size: 16px;&quot;&gt;Memory Heap&amp;nbsp;&lt;/font&gt;" style="rounded=1;whiteSpace=wrap;html=1;fontFamily=Tahoma;fontSize=14;fontColor=#FFFFFF;" parent="14" vertex="1">
                    <mxGeometry y="140" width="210" height="60" as="geometry"/>
                </mxCell>
                <mxCell id="25" value="" style="rounded=1;whiteSpace=wrap;html=1;" parent="14" vertex="1">
                    <mxGeometry y="200" width="210" height="60" as="geometry"/>
                </mxCell>
                <mxCell id="24" value="&lt;span style=&quot;color: rgb(36, 171, 255);&quot;&gt;Call Stack&amp;nbsp;&lt;/span&gt;" style="text;html=1;strokeColor=none;fillColor=none;align=center;verticalAlign=middle;whiteSpace=wrap;rounded=0;fontFamily=Tahoma;fontSize=17;fontColor=#CC00CC;" parent="14" vertex="1">
                    <mxGeometry x="30" y="205" width="150" height="50" as="geometry"/>
                </mxCell>
                <mxCell id="17" value="Execute One line of code at one time" style="whiteSpace=wrap;html=1;fontFamily=Tahoma;fontSize=14;fontColor=#FFFFFF;" parent="1" vertex="1">
                    <mxGeometry x="430" y="120" width="210" height="60" as="geometry"/>
                </mxCell>
                <mxCell id="20" value="" style="shape=curlyBracket;whiteSpace=wrap;html=1;rounded=1;labelPosition=left;verticalLabelPosition=middle;align=right;verticalAlign=middle;fontFamily=Tahoma;fontSize=17;fontColor=#24ABFF;size=0.5;" parent="1" vertex="1">
                    <mxGeometry x="390" y="100" width="20" height="250" as="geometry"/>
                </mxCell>
                <mxCell id="21" value="" style="shape=curlyBracket;whiteSpace=wrap;html=1;rounded=1;flipH=1;labelPosition=right;verticalLabelPosition=middle;align=left;verticalAlign=middle;fontFamily=Tahoma;fontSize=17;fontColor=#24ABFF;" parent="1" vertex="1">
                    <mxGeometry x="660" y="100" width="20" height="250" as="geometry"/>
                </mxCell>
                <mxCell id="23" value="each&amp;nbsp; operation waits for the last one to compleate the before execution&amp;nbsp;&amp;nbsp;" style="ellipse;shape=cloud;whiteSpace=wrap;html=1;fontFamily=Tahoma;fontSize=17;fontColor=#CC00CC;" parent="1" vertex="1">
                    <mxGeometry y="300" width="380" height="145" as="geometry"/>
                </mxCell>
                <mxCell id="26" value="&lt;font color=&quot;#9cf03c&quot; style=&quot;font-size: 14px;&quot;&gt;Syncronous Programming&lt;/font&gt;" style="text;html=1;strokeColor=none;fillColor=none;align=center;verticalAlign=middle;whiteSpace=wrap;rounded=0;" parent="1" vertex="1">
                    <mxGeometry x="360" y="460" width="160" height="50" as="geometry"/>
                </mxCell>
                <mxCell id="27" value="" style="endArrow=classic;html=1;fontSize=14;fontColor=#9CF03C;entryX=0.656;entryY=-0.051;entryDx=0;entryDy=0;entryPerimeter=0;" parent="1" target="26" edge="1">
                    <mxGeometry width="50" height="50" relative="1" as="geometry">
                        <mxPoint x="510" y="380" as="sourcePoint"/>
                        <mxPoint x="480" y="440" as="targetPoint"/>
                        <Array as="points"/>
                    </mxGeometry>
                </mxCell>
                <mxCell id="28" value="" style="endArrow=classic;html=1;fontSize=14;fontColor=#9CF03C;" parent="1" source="23" edge="1">
                    <mxGeometry width="50" height="50" relative="1" as="geometry">
                        <mxPoint x="340" y="510" as="sourcePoint"/>
                        <mxPoint x="390" y="460" as="targetPoint"/>
                    </mxGeometry>
                </mxCell>
                <mxCell id="30" value="&lt;font style=&quot;&quot; color=&quot;#2626ff&quot;&gt;&lt;font style=&quot;font-size: 14px;&quot;&gt;Call Stack&amp;nbsp;&lt;/font&gt;&lt;span style=&quot;font-size: 13px;&quot;&gt; :&amp;nbsp;&amp;nbsp;&lt;/span&gt;&lt;/font&gt;&lt;span style=&quot;color: rgb(38, 38, 255); font-family: &amp;quot;Google Sans&amp;quot;, Arial, sans-serif; font-size: 16px; text-align: start; background-color: rgb(31, 31, 31);&quot;&gt;Call Stack&amp;nbsp;&lt;/span&gt;&lt;font color=&quot;#f0f04d&quot;&gt;&lt;span style=&quot;background-color: rgb(52, 69, 127); font-family: &amp;quot;Google Sans&amp;quot;, Arial, sans-serif; font-size: 16px; text-align: start;&quot;&gt;to track the functions in a program&lt;/span&gt;&lt;span style=&quot;font-family: &amp;quot;Google Sans&amp;quot;, Arial, sans-serif; font-size: 16px; text-align: start; background-color: rgb(31, 31, 31);&quot;&gt;.&lt;/span&gt;&lt;/font&gt;&lt;span style=&quot;color: rgb(38, 38, 255); font-family: &amp;quot;Google Sans&amp;quot;, Arial, sans-serif; font-size: 16px; text-align: start; background-color: rgb(31, 31, 31);&quot;&gt; The call stack works on the Last In, First Out (LIFO) principle.&lt;br&gt;Heap :&amp;nbsp;&lt;/span&gt;&lt;span style=&quot;color: rgb(38, 38, 255); font-family: &amp;quot;Google Sans&amp;quot;, Arial, sans-serif; font-size: 16px; text-align: start; background-color: rgb(31, 31, 31);&quot;&gt;Heap: It is&amp;nbsp;&lt;/span&gt;&lt;span style=&quot;background-color: rgb(52, 69, 127); font-family: &amp;quot;Google Sans&amp;quot;, Arial, sans-serif; font-size: 16px; text-align: start;&quot;&gt;&lt;font color=&quot;#f0f04d&quot;&gt;used to store objects and functions in JavaScript&lt;/font&gt;&lt;/span&gt;&lt;span style=&quot;color: rgb(191, 191, 191); font-family: &amp;quot;Google Sans&amp;quot;, Arial, sans-serif; font-size: 16px; text-align: start; background-color: rgb(31, 31, 31);&quot;&gt;&lt;br&gt;&lt;/span&gt;" style="shape=ext;double=1;rounded=1;whiteSpace=wrap;html=1;" parent="1" vertex="1">
                    <mxGeometry x="190" y="570" width="490" height="140" as="geometry"/>
                </mxCell>
            </root>
        </mxGraphModel>
    </diagram>
</mxfile>